<svg width="176" height="69" viewBox="0 0 176 69" fill="none" xmlns="http://www.w3.org/2000/svg">
<rect width="176" height="69" rx="3" fill="#303639"/>
<g clip-path="url(#clip0_101_9682)">
<path d="M40.087 33.8129L26.2918 19.9793L43.8438 30.0561L40.087 33.8129ZM22.6902 19.1665C21.8774 19.5921 21.3334 20.3665 21.3334 21.3745V48.9585C21.3334 49.9665 21.8774 50.7409 22.6902 51.1665L38.7334 35.1633L22.6902 19.1665ZM49.271 33.2689L45.5894 31.1377L41.4822 35.1697L45.5894 39.2017L49.3462 37.0705C50.471 36.1761 50.471 34.1633 49.271 33.2689ZM26.2918 50.3601L43.8438 40.2833L40.087 36.5265L26.2918 50.3601Z" fill="white"/>
</g>
<path d="M76.272 21.864V22.458C76.272 23.558 75.92 24.449 75.216 25.131C74.512 25.813 73.6027 26.154 72.488 26.154C71.3 26.154 70.3137 25.769 69.529 24.999C68.7517 24.2217 68.363 23.2757 68.363 22.161C68.363 21.039 68.748 20.0893 69.518 19.312C70.2953 18.5347 71.256 18.146 72.4 18.146C73.1187 18.146 73.775 18.311 74.369 18.641C74.963 18.9637 75.425 19.3963 75.755 19.939L74.457 20.687C74.2737 20.3717 73.995 20.115 73.621 19.917C73.2543 19.719 72.8437 19.62 72.389 19.62C71.6557 19.62 71.0507 19.862 70.574 20.346C70.1047 20.8227 69.87 21.4277 69.87 22.161C69.87 22.887 70.1083 23.4883 70.585 23.965C71.069 24.4343 71.707 24.669 72.499 24.669C73.0857 24.669 73.5697 24.5407 73.951 24.284C74.3397 24.02 74.6037 23.6607 74.743 23.206H72.411V21.864H76.272ZM78.4847 23.833C78.6754 24.5223 79.1924 24.867 80.0357 24.867C80.5784 24.867 80.9891 24.6837 81.2677 24.317L82.4117 24.977C81.8691 25.7617 81.0697 26.154 80.0137 26.154C79.1044 26.154 78.3747 25.879 77.8247 25.329C77.2747 24.779 76.9997 24.086 76.9997 23.25C76.9997 22.4213 77.2711 21.732 77.8137 21.182C78.3564 20.6247 79.0531 20.346 79.9037 20.346C80.7104 20.346 81.3741 20.6247 81.8947 21.182C82.4227 21.7393 82.6867 22.4287 82.6867 23.25C82.6867 23.4333 82.6684 23.6277 82.6317 23.833H78.4847ZM78.4627 22.733H81.2677C81.1871 22.359 81.0184 22.0803 80.7617 21.897C80.5124 21.7137 80.2264 21.622 79.9037 21.622C79.5224 21.622 79.2071 21.721 78.9577 21.919C78.7084 22.1097 78.5434 22.381 78.4627 22.733ZM86.6622 21.864H85.4192V24.152C85.4192 24.3427 85.4669 24.482 85.5622 24.57C85.6575 24.658 85.7969 24.7093 85.9802 24.724C86.1635 24.7313 86.3909 24.7277 86.6622 24.713V26C85.6869 26.11 84.9975 26.0183 84.5942 25.725C84.1982 25.4317 84.0002 24.9073 84.0002 24.152V21.864H83.0432V20.5H84.0002V19.389L85.4192 18.96V20.5H86.6622V21.864ZM91.2026 19.84C90.9679 19.84 90.7626 19.7557 90.5866 19.587C90.4179 19.411 90.3336 19.2057 90.3336 18.971C90.3336 18.7363 90.4179 18.531 90.5866 18.355C90.7626 18.179 90.9679 18.091 91.2026 18.091C91.4446 18.091 91.6499 18.179 91.8186 18.355C91.9946 18.531 92.0826 18.7363 92.0826 18.971C92.0826 19.2057 91.9946 19.411 91.8186 19.587C91.6499 19.7557 91.4446 19.84 91.2026 19.84ZM90.4986 26V20.5H91.9176V26H90.4986ZM96.3624 21.864H95.1194V24.152C95.1194 24.3427 95.167 24.482 95.2624 24.57C95.3577 24.658 95.497 24.7093 95.6804 24.724C95.8637 24.7313 96.091 24.7277 96.3624 24.713V26C95.387 26.11 94.6977 26.0183 94.2944 25.725C93.8984 25.4317 93.7004 24.9073 93.7004 24.152V21.864H92.7434V20.5H93.7004V19.389L95.1194 18.96V20.5H96.3624V21.864ZM103.257 20.346C103.858 20.346 104.353 20.5477 104.742 20.951C105.138 21.3543 105.336 21.9117 105.336 22.623V26H103.917V22.799C103.917 22.4323 103.818 22.1537 103.62 21.963C103.422 21.765 103.158 21.666 102.828 21.666C102.461 21.666 102.168 21.7797 101.948 22.007C101.728 22.2343 101.618 22.5753 101.618 23.03V26H100.199V20.5H101.618V21.116C101.962 20.6027 102.509 20.346 103.257 20.346ZM111.233 25.318C110.669 25.8753 109.979 26.154 109.165 26.154C108.351 26.154 107.662 25.8753 107.097 25.318C106.54 24.7533 106.261 24.064 106.261 23.25C106.261 22.436 106.54 21.7503 107.097 21.193C107.662 20.6283 108.351 20.346 109.165 20.346C109.979 20.346 110.669 20.6283 111.233 21.193C111.798 21.7503 112.08 22.436 112.08 23.25C112.08 24.064 111.798 24.7533 111.233 25.318ZM108.098 24.339C108.384 24.625 108.74 24.768 109.165 24.768C109.591 24.768 109.946 24.625 110.232 24.339C110.518 24.053 110.661 23.69 110.661 23.25C110.661 22.81 110.518 22.447 110.232 22.161C109.946 21.875 109.591 21.732 109.165 21.732C108.74 21.732 108.384 21.875 108.098 22.161C107.82 22.447 107.68 22.81 107.68 23.25C107.68 23.69 107.82 24.053 108.098 24.339ZM119.057 20.5H120.564L118.815 26H117.462L116.45 22.667L115.438 26H114.085L112.336 20.5H113.843L114.778 23.877L115.779 20.5H117.121L118.122 23.888L119.057 20.5Z" fill="white"/>
<path d="M78.528 41.736V42.492C78.528 43.892 78.08 45.026 77.184 45.894C76.288 46.762 75.1307 47.196 73.712 47.196C72.2 47.196 70.9447 46.706 69.946 45.726C68.9567 44.7367 68.462 43.5327 68.462 42.114C68.462 40.686 68.952 39.4773 69.932 38.488C70.9213 37.4987 72.144 37.004 73.6 37.004C74.5147 37.004 75.35 37.214 76.106 37.634C76.862 38.0447 77.45 38.5953 77.87 39.286L76.218 40.238C75.9847 39.8367 75.63 39.51 75.154 39.258C74.6873 39.006 74.1647 38.88 73.586 38.88C72.6527 38.88 71.8827 39.188 71.276 39.804C70.6787 40.4107 70.38 41.1807 70.38 42.114C70.38 43.038 70.6833 43.8033 71.29 44.41C71.906 45.0073 72.718 45.306 73.726 45.306C74.4727 45.306 75.0887 45.1427 75.574 44.816C76.0687 44.48 76.4047 44.0227 76.582 43.444H73.614V41.736H78.528ZM85.7822 46.132C85.0635 46.8413 84.1862 47.196 83.1502 47.196C82.1142 47.196 81.2369 46.8413 80.5182 46.132C79.8089 45.4133 79.4542 44.536 79.4542 43.5C79.4542 42.464 79.8089 41.5913 80.5182 40.882C81.2369 40.1633 82.1142 39.804 83.1502 39.804C84.1862 39.804 85.0635 40.1633 85.7822 40.882C86.5009 41.5913 86.8602 42.464 86.8602 43.5C86.8602 44.536 86.5009 45.4133 85.7822 46.132ZM81.7922 44.886C82.1562 45.25 82.6089 45.432 83.1502 45.432C83.6915 45.432 84.1442 45.25 84.5082 44.886C84.8722 44.522 85.0542 44.06 85.0542 43.5C85.0542 42.94 84.8722 42.478 84.5082 42.114C84.1442 41.75 83.6915 41.568 83.1502 41.568C82.6089 41.568 82.1562 41.75 81.7922 42.114C81.4375 42.478 81.2602 42.94 81.2602 43.5C81.2602 44.06 81.4375 44.522 81.7922 44.886ZM94.0947 46.132C93.376 46.8413 92.4987 47.196 91.4627 47.196C90.4267 47.196 89.5494 46.8413 88.8307 46.132C88.1214 45.4133 87.7667 44.536 87.7667 43.5C87.7667 42.464 88.1214 41.5913 88.8307 40.882C89.5494 40.1633 90.4267 39.804 91.4627 39.804C92.4987 39.804 93.376 40.1633 94.0947 40.882C94.8134 41.5913 95.1727 42.464 95.1727 43.5C95.1727 44.536 94.8134 45.4133 94.0947 46.132ZM90.1047 44.886C90.4687 45.25 90.9214 45.432 91.4627 45.432C92.004 45.432 92.4567 45.25 92.8207 44.886C93.1847 44.522 93.3667 44.06 93.3667 43.5C93.3667 42.94 93.1847 42.478 92.8207 42.114C92.4567 41.75 92.004 41.568 91.4627 41.568C90.9214 41.568 90.4687 41.75 90.1047 42.114C89.75 42.478 89.5727 42.94 89.5727 43.5C89.5727 44.06 89.75 44.522 90.1047 44.886ZM101.805 40H103.569V46.664C103.569 47.7467 103.21 48.5727 102.491 49.142C101.782 49.7113 100.923 49.996 99.9152 49.996C99.1592 49.996 98.4919 49.8513 97.9132 49.562C97.3439 49.2727 96.9052 48.848 96.5972 48.288L98.1372 47.406C98.4919 48.0593 99.1032 48.386 99.9712 48.386C100.541 48.386 100.989 48.2367 101.315 47.938C101.642 47.6393 101.805 47.2147 101.805 46.664V45.908C101.273 46.6173 100.527 46.972 99.5652 46.972C98.5759 46.972 97.7452 46.6267 97.0732 45.936C96.4105 45.236 96.0792 44.3867 96.0792 43.388C96.0792 42.3987 96.4152 41.554 97.0872 40.854C97.7592 40.154 98.5852 39.804 99.5652 39.804C100.527 39.804 101.273 40.1587 101.805 40.868V40ZM98.4312 44.774C98.8045 45.1287 99.2759 45.306 99.8452 45.306C100.415 45.306 100.881 45.1287 101.245 44.774C101.619 44.41 101.805 43.948 101.805 43.388C101.805 42.8373 101.619 42.3847 101.245 42.03C100.881 41.666 100.415 41.484 99.8452 41.484C99.2759 41.484 98.8045 41.666 98.4312 42.03C98.0672 42.3847 97.8852 42.8373 97.8852 43.388C97.8852 43.948 98.0672 44.41 98.4312 44.774ZM105.207 47V36.78H107.013V47H105.207ZM110.192 44.242C110.435 45.1193 111.093 45.558 112.166 45.558C112.857 45.558 113.379 45.3247 113.734 44.858L115.19 45.698C114.499 46.6967 113.482 47.196 112.138 47.196C110.981 47.196 110.052 46.846 109.352 46.146C108.652 45.446 108.302 44.564 108.302 43.5C108.302 42.4453 108.647 41.568 109.338 40.868C110.029 40.1587 110.915 39.804 111.998 39.804C113.025 39.804 113.869 40.1587 114.532 40.868C115.204 41.5773 115.54 42.4547 115.54 43.5C115.54 43.7333 115.517 43.9807 115.47 44.242H110.192ZM110.164 42.842H113.734C113.631 42.366 113.417 42.0113 113.09 41.778C112.773 41.5447 112.409 41.428 111.998 41.428C111.513 41.428 111.111 41.554 110.794 41.806C110.477 42.0487 110.267 42.394 110.164 42.842ZM124.039 37.2C124.981 37.2 125.775 37.5173 126.419 38.152C127.063 38.7867 127.385 39.566 127.385 40.49C127.385 41.414 127.063 42.1933 126.419 42.828C125.775 43.4627 124.981 43.78 124.039 43.78H122.317V47H120.385V37.2H124.039ZM124.039 41.974C124.449 41.974 124.79 41.834 125.061 41.554C125.331 41.2647 125.467 40.91 125.467 40.49C125.467 40.0607 125.331 39.706 125.061 39.426C124.79 39.146 124.449 39.006 124.039 39.006H122.317V41.974H124.039ZM128.558 47V36.78H130.364V47H128.558ZM137.337 40H139.143V47H137.337V46.174C136.796 46.8553 136.035 47.196 135.055 47.196C134.122 47.196 133.319 46.8413 132.647 46.132C131.985 45.4133 131.653 44.536 131.653 43.5C131.653 42.464 131.985 41.5913 132.647 40.882C133.319 40.1633 134.122 39.804 135.055 39.804C136.035 39.804 136.796 40.1447 137.337 40.826V40ZM134.005 44.928C134.369 45.292 134.831 45.474 135.391 45.474C135.951 45.474 136.413 45.292 136.777 44.928C137.151 44.5547 137.337 44.0787 137.337 43.5C137.337 42.9213 137.151 42.45 136.777 42.086C136.413 41.7127 135.951 41.526 135.391 41.526C134.831 41.526 134.369 41.7127 134.005 42.086C133.641 42.45 133.459 42.9213 133.459 43.5C133.459 44.0787 133.641 44.5547 134.005 44.928ZM145.345 40H147.277L144.729 47C144.365 48.008 143.88 48.736 143.273 49.184C142.676 49.6413 141.929 49.8467 141.033 49.8V48.12C141.518 48.1293 141.901 48.0267 142.181 47.812C142.47 47.5973 142.699 47.252 142.867 46.776L139.997 40H141.971L143.791 44.704L145.345 40Z" fill="white"/>
<defs>
<clipPath id="clip0_101_9682">
<rect width="32" height="32" fill="white" transform="translate(20 18.5)"/>
</clipPath>
</defs>
</svg>
