<svg width="48" height="49" viewBox="0 0 48 49" fill="none" xmlns="http://www.w3.org/2000/svg">
<rect y="0.067627" width="48" height="48" rx="2" fill="#006FAB" fill-opacity="0.1"/>
<path d="M24 32.3176C24 32.3176 14.625 27.0676 14.625 20.6926C14.625 19.5657 15.0155 18.4735 15.73 17.6019C16.4445 16.7304 17.4388 16.1333 18.5439 15.9123C19.649 15.6913 20.7966 15.86 21.7913 16.3897C22.7861 16.9194 23.5665 17.7773 24 18.8176C24.4335 17.7773 25.2139 16.9194 26.2087 16.3897C27.2034 15.86 28.351 15.6913 29.4561 15.9123C30.5612 16.1333 31.5555 16.7304 32.27 17.6019C32.9845 18.4735 33.375 19.5657 33.375 20.6926C33.375 27.0676 24 32.3176 24 32.3176Z" stroke="#191C1F" stroke-width="1.5" stroke-linecap="round" stroke-linejoin="round"/>
</svg>
