<svg width="24" height="24" viewBox="0 0 24 24" fill="none" xmlns="http://www.w3.org/2000/svg">
<path d="M16.78 12.1907L9.52194 19.4487C9.45451 19.5162 9.37445 19.5696 9.28635 19.6061C9.19824 19.6426 9.1038 19.6614 9.00844 19.6614C8.91307 19.6614 8.81864 19.6426 8.73053 19.6061C8.64242 19.5696 8.56236 19.5162 8.49493 19.4487C8.42749 19.3813 8.374 19.3012 8.33751 19.2131C8.30101 19.125 8.28223 19.0306 8.28223 18.9352C8.28223 18.8398 8.30101 18.7454 8.33751 18.6573C8.374 18.5692 8.42749 18.4891 8.49493 18.4217L15.2404 11.6771L8.49493 4.93259C8.35874 4.7964 8.28223 4.61168 8.28223 4.41908C8.28223 4.22648 8.35874 4.04176 8.49493 3.90557C8.63112 3.76938 8.81583 3.69287 9.00844 3.69287C9.20104 3.69287 9.38575 3.76938 9.52194 3.90557L16.78 11.1636C16.8475 11.231 16.901 11.3111 16.9376 11.3992C16.9741 11.4873 16.9929 11.5818 16.9929 11.6771C16.9929 11.7725 16.9741 11.867 16.9376 11.9551C16.901 12.0432 16.8475 12.1232 16.78 12.1907Z" fill="black"/>
</svg>
