<svg width="38" height="38" viewBox="0 0 38 38" fill="none" xmlns="http://www.w3.org/2000/svg">
<path d="M10 35C11.1046 35 12 34.1046 12 33C12 31.8954 11.1046 31 10 31C8.89543 31 8 31.8954 8 33C8 34.1046 8.89543 35 10 35Z" fill="#006FAB"/>
<path d="M23 35C24.1046 35 25 34.1046 25 33C25 31.8954 24.1046 31 23 31C21.8954 31 21 31.8954 21 33C21 34.1046 21.8954 35 23 35Z" fill="#006FAB"/>
<path d="M5.2875 15H27.7125L24.4125 26.55C24.2948 26.9692 24.0426 27.3381 23.6948 27.6001C23.3471 27.862 22.9229 28.0025 22.4875 28H10.5125C10.0771 28.0025 9.65293 27.862 9.30515 27.6001C8.95738 27.3381 8.70524 26.9692 8.5875 26.55L4.0625 10.725C4.0027 10.5159 3.8764 10.3321 3.70271 10.2012C3.52903 10.0704 3.31744 9.99977 3.1 10H1" stroke="#006FAB" stroke-width="2" stroke-linecap="round" stroke-linejoin="round"/>
<rect x="15.25" y="1.25" width="21.5" height="21.5" rx="10.75" fill="white"/>
<rect x="15.25" y="1.25" width="21.5" height="21.5" rx="10.75" stroke="#1B6392" stroke-width="1.5"/>
<path d="M23.1365 15V13.764L26.0045 10.812C26.6445 10.14 26.9645 9.58 26.9645 9.132C26.9645 8.804 26.8605 8.54 26.6525 8.34C26.4525 8.14 26.1925 8.04 25.8725 8.04C25.2405 8.04 24.7725 8.368 24.4685 9.024L23.0765 8.208C23.3405 7.632 23.7205 7.192 24.2165 6.888C24.7125 6.584 25.2565 6.432 25.8485 6.432C26.6085 6.432 27.2605 6.672 27.8045 7.152C28.3485 7.624 28.6205 8.264 28.6205 9.072C28.6205 9.944 28.1605 10.84 27.2405 11.76L25.5965 13.404H28.7525V15H23.1365Z" fill="#1B6392"/>
</svg>
