<svg width="21" height="21" viewBox="0 0 21 21" fill="none" xmlns="http://www.w3.org/2000/svg">
<path d="M7.75 16.9426C7.75 17.2188 7.52614 17.4426 7.25 17.4426C6.97386 17.4426 6.75 17.2188 6.75 16.9426C6.75 16.6665 6.97386 16.4426 7.25 16.4426C7.52614 16.4426 7.75 16.6665 7.75 16.9426Z" fill="white" stroke="white" stroke-width="1.5"/>
<path d="M15.375 18.1926C16.0654 18.1926 16.625 17.633 16.625 16.9426C16.625 16.2523 16.0654 15.6926 15.375 15.6926C14.6846 15.6926 14.125 16.2523 14.125 16.9426C14.125 17.633 14.6846 18.1926 15.375 18.1926Z" fill="white"/>
<path d="M4.30469 5.69263H18.3203L16.2578 12.9114C16.1842 13.1734 16.0266 13.4039 15.8093 13.5677C15.5919 13.7314 15.3268 13.8192 15.0547 13.8176H7.57031C7.29819 13.8192 7.03308 13.7314 6.81572 13.5677C6.59836 13.4039 6.44078 13.1734 6.36719 12.9114L3.53906 3.02075C3.50169 2.89009 3.42275 2.77517 3.3142 2.69341C3.20565 2.61164 3.0734 2.56748 2.9375 2.56763H1.625" stroke="white" stroke-width="1.5" stroke-linecap="round" stroke-linejoin="round"/>
</svg>
