<svg width="16" height="16" viewBox="0 0 16 16" fill="none" xmlns="http://www.w3.org/2000/svg">
<g clip-path="url(#clip0_94_2214)">
<path fill-rule="evenodd" clip-rule="evenodd" d="M8 0C12.4183 0 16 3.58173 16 8C16 12.4183 12.4183 16 8 16C3.58173 16 0 12.4183 0 8C0 3.58173 3.58173 0 8 0Z" fill="#006FAB"/>
<path d="M9.04168 15.933V9.75237H10.7851L11.0163 7.5771H9.04168L9.04461 6.48827C9.04461 5.92091 9.09854 5.61705 9.91396 5.61705H11.004V3.44141H9.26017C7.16548 3.44141 6.42832 4.4966 6.42832 6.27136V7.57726H5.12256V9.75274H6.42832V15.8453C6.93701 15.9466 7.46292 16.0001 8.00138 16.0001C8.34923 16.0001 8.69672 15.9777 9.04168 15.933Z" fill="white"/>
</g>
<defs>
<clipPath id="clip0_94_2214">
<rect width="16" height="16" fill="white"/>
</clipPath>
</defs>
</svg>
