<svg width="20" height="20" viewBox="0 0 20 20" fill="none" xmlns="http://www.w3.org/2000/svg">
<path opacity="0.2" d="M16.5469 10.3984C16.5703 10.1328 16.5469 9.60156 16.5469 9.60156L17.8438 7.875C17.6622 7.20265 17.3944 6.55665 17.0469 5.95313L14.9141 5.64844C14.7318 5.45573 14.5443 5.26823 14.3516 5.08594L14.0469 2.95312C13.4437 2.60481 12.7976 2.33692 12.125 2.15625L10.3984 3.45313C10.1333 3.42968 9.86667 3.42968 9.60156 3.45313L7.875 2.15625C7.20265 2.33776 6.55665 2.60561 5.95313 2.95312L5.64844 5.08594C5.45573 5.26823 5.26823 5.45573 5.08594 5.64844L2.95312 5.95313C2.60481 6.55625 2.33692 7.20236 2.15625 7.875L3.45313 9.60156C3.4375 9.86719 3.45313 10.3984 3.45313 10.3984L2.15625 12.125C2.33776 12.7974 2.60561 13.4434 2.95312 14.0469L5.08594 14.3516C5.26823 14.5495 5.45573 14.737 5.64844 14.9141L5.95313 17.0469C6.55625 17.3952 7.20236 17.6631 7.875 17.8438L9.60156 16.5469C9.86667 16.5703 10.1333 16.5703 10.3984 16.5469L12.125 17.8438C12.7974 17.6622 13.4434 17.3944 14.0469 17.0469L14.3516 14.9141C14.5469 14.7344 14.9141 14.3516 14.9141 14.3516L17.0469 14.0469C17.3952 13.4437 17.6631 12.7976 17.8438 12.125L16.5469 10.3984ZM10 13.75C9.25832 13.75 8.5333 13.5301 7.91661 13.118C7.29993 12.706 6.81928 12.1203 6.53545 11.4351C6.25162 10.7498 6.17736 9.99584 6.32206 9.26841C6.46675 8.54098 6.8239 7.8728 7.34835 7.34835C7.8728 6.8239 8.54098 6.46675 9.26841 6.32206C9.99584 6.17736 10.7498 6.25162 11.4351 6.53545C12.1203 6.81928 12.706 7.29993 13.118 7.91661C13.5301 8.5333 13.75 9.25832 13.75 10C13.75 10.9946 13.3549 11.9484 12.6517 12.6517C11.9484 13.3549 10.9946 13.75 10 13.75Z" fill="white"/>
<path d="M10 13.75C12.0711 13.75 13.75 12.0711 13.75 10C13.75 7.92893 12.0711 6.25 10 6.25C7.92893 6.25 6.25 7.92893 6.25 10C6.25 12.0711 7.92893 13.75 10 13.75Z" stroke="white" stroke-width="1.5" stroke-linecap="round" stroke-linejoin="round"/>
<path d="M14.3516 5.08594C14.5495 5.26823 14.737 5.45573 14.9141 5.64844L17.0469 5.95313C17.3944 6.55665 17.6622 7.20265 17.8438 7.875L16.5469 9.60156C16.5469 9.60156 16.5703 10.1328 16.5469 10.3984L17.8438 12.125C17.6631 12.7976 17.3952 13.4437 17.0469 14.0469L14.9141 14.3516C14.9141 14.3516 14.5469 14.7344 14.3516 14.9141L14.0469 17.0469C13.4434 17.3944 12.7974 17.6622 12.125 17.8438L10.3984 16.5469C10.1333 16.5703 9.86667 16.5703 9.60156 16.5469L7.875 17.8438C7.20236 17.6631 6.55625 17.3952 5.95313 17.0469L5.64844 14.9141C5.45573 14.7318 5.26823 14.5443 5.08594 14.3516L2.95312 14.0469C2.60561 13.4434 2.33776 12.7974 2.15625 12.125L3.45313 10.3984C3.45313 10.3984 3.4375 9.86719 3.45313 9.60156L2.15625 7.875C2.33692 7.20236 2.60481 6.55625 2.95312 5.95313L5.08594 5.64844C5.26823 5.45573 5.45573 5.26823 5.64844 5.08594L5.95313 2.95312C6.55665 2.60561 7.20265 2.33776 7.875 2.15625L9.60156 3.45313C9.86667 3.42968 10.1333 3.42968 10.3984 3.45313L12.125 2.15625C12.7976 2.33692 13.4437 2.60481 14.0469 2.95312L14.3516 5.08594Z" stroke="white" stroke-width="1.5" stroke-linecap="round" stroke-linejoin="round"/>
</svg>
