<svg width="72" height="24" viewBox="0 0 72 24" fill="none" xmlns="http://www.w3.org/2000/svg">
<path d="M8.8671 0.263184H9.50737C11.7302 0.311459 13.9168 1.20456 15.4872 2.78559C14.9074 3.37697 14.3154 3.94421 13.7476 4.53559C12.8658 3.73904 11.8027 3.12353 10.6429 2.90628C8.9275 2.54422 7.07918 2.87008 5.6416 3.84766C4.07113 4.87352 3.00804 6.61145 2.77851 8.47007C2.52482 10.3046 3.04428 12.2356 4.24025 13.6597C5.38791 15.0477 7.13958 15.9166 8.95166 15.977C10.6429 16.0735 12.4067 15.5545 13.6389 14.3718C14.6054 13.539 15.0523 12.2718 15.1973 11.0408C13.1919 11.0408 11.1866 11.0528 9.1812 11.0408V8.55455H17.6255C18.0604 11.2218 17.4322 14.227 15.4027 16.1339C14.0497 17.4856 12.1772 18.2821 10.2684 18.439C8.42012 18.6201 6.5114 18.2701 4.86844 17.377C2.89932 16.327 1.32884 14.5528 0.55569 12.4649C-0.169142 10.5459 -0.181223 8.37352 0.495288 6.44249C1.1114 4.68042 2.29529 3.12353 3.81744 2.03732C5.27918 0.963183 7.05502 0.371804 8.8671 0.263184Z" fill="white"/>
<path d="M57.3101 0.890625H59.8953V18.1251C59.0376 18.1251 58.1678 18.1371 57.3101 18.113C57.3221 12.3803 57.3101 6.63544 57.3101 0.890625Z" fill="white"/>
<path d="M23.3759 6.86487C24.9705 6.56315 26.698 6.90108 28.0148 7.85453C29.2108 8.69935 30.0443 10.0269 30.298 11.4752C30.6242 13.1528 30.2135 14.9873 29.1262 16.3149C27.9544 17.7993 26.0336 18.5959 24.1611 18.4752C22.4457 18.3786 20.7786 17.5218 19.7638 16.1218C18.6162 14.5769 18.3383 12.4528 18.9665 10.6425C19.5947 8.69935 21.3705 7.21487 23.3759 6.86487ZM23.7383 9.15797C23.086 9.32694 22.4819 9.70108 22.047 10.2321C20.8752 11.6321 20.9477 13.9131 22.2403 15.2166C22.9772 15.9649 24.0886 16.3149 25.1155 16.1097C26.0698 15.9407 26.9034 15.3011 27.3625 14.4562C28.1598 13.02 27.9303 11.0407 26.7101 9.91832C25.9249 9.19418 24.7772 8.89246 23.7383 9.15797Z" fill="white"/>
<path d="M36.1812 6.86478C38.0053 6.51479 39.9986 7.02168 41.3637 8.30099C43.5865 10.2924 43.8282 14.0217 41.9315 16.3148C40.7839 17.763 38.9235 18.5596 37.0872 18.4751C35.3355 18.4268 33.608 17.5579 32.5691 16.1217C31.3973 14.5406 31.1436 12.3682 31.808 10.5217C32.4724 8.63892 34.212 7.20272 36.1812 6.86478ZM36.5436 9.15788C35.8912 9.32685 35.2872 9.70099 34.8523 10.22C33.6926 11.5958 33.7409 13.8406 34.9852 15.1561C35.7221 15.9406 36.8698 16.3268 37.9328 16.1096C38.8751 15.9286 39.7208 15.301 40.1798 14.4562C40.9651 13.0079 40.7355 11.0286 39.5033 9.90616C38.7181 9.18202 37.5704 8.89237 36.5436 9.15788Z" fill="white"/>
<path d="M47.0416 7.56467C48.4309 6.69571 50.2792 6.45433 51.7772 7.2026C52.2483 7.40777 52.6349 7.75777 53.0094 8.10777C53.0215 7.78191 53.0094 7.44398 53.0215 7.10605C53.8309 7.11812 54.6403 7.10605 55.4617 7.11812V17.7629C55.4497 19.3681 55.0389 21.0698 53.8792 22.2405C52.6107 23.5319 50.6658 23.9302 48.9141 23.6646C47.0416 23.3871 45.4107 22.0233 44.6859 20.2974C45.4107 19.9474 46.1718 19.6698 46.9208 19.344C47.3436 20.3336 48.2013 21.1784 49.2765 21.3715C50.3517 21.5647 51.596 21.2991 52.2966 20.406C53.0456 19.4888 53.0456 18.2336 53.0094 17.1112C52.4537 17.6543 51.8134 18.1371 51.0403 18.3181C49.3611 18.7888 47.5128 18.2095 46.2201 17.075C44.9154 15.9405 44.1423 14.1905 44.2148 12.4526C44.251 10.4854 45.3624 8.59053 47.0416 7.56467ZM49.5423 9.1095C48.8054 9.23019 48.1168 9.64053 47.6456 10.2078C46.5101 11.5595 46.5101 13.7198 47.6577 15.0474C48.3101 15.8319 49.3611 16.2664 50.3758 16.1578C51.3302 16.0612 52.2121 15.4578 52.6832 14.625C53.4805 13.2129 53.3477 11.294 52.2725 10.0629C51.6081 9.3026 50.545 8.92846 49.5423 9.1095Z" fill="white"/>
<path d="M63 8.1804C64.4497 6.82867 66.6846 6.37005 68.545 7.08212C70.3087 7.74591 71.4322 9.4235 72 11.1494C69.3785 12.2356 66.7691 13.3097 64.1477 14.3959C64.5101 15.0838 65.0658 15.7114 65.8148 15.9649C66.8658 16.339 68.1222 16.2062 69.004 15.5062C69.3544 15.2407 69.6322 14.8907 69.898 14.5528C70.5624 14.9993 71.2269 15.4338 71.8913 15.8804C70.949 17.2924 69.3665 18.2821 67.6631 18.439C65.7785 18.6683 63.7732 17.9442 62.553 16.4718C60.5476 14.1545 60.7409 10.2683 63 8.1804ZM64.2926 10.4132C63.8819 11.0045 63.7128 11.7287 63.7248 12.4407C65.4765 11.7166 67.2282 10.9925 68.9799 10.2563C68.6899 9.58039 67.9893 9.17005 67.2765 9.06143C66.1289 8.85626 64.9329 9.47177 64.2926 10.4132Z" fill="white"/>
</svg>
