<svg width="56" height="56" viewBox="0 0 56 56" fill="none" xmlns="http://www.w3.org/2000/svg">
<rect width="56" height="56" rx="2" fill="white"/>
<path opacity="0.2" d="M16 38V19C16 18.7348 16.1054 18.4804 16.2929 18.2929C16.4804 18.1054 16.7348 18 17 18H39C39.2652 18 39.5196 18.1054 39.7071 18.2929C39.8946 18.4804 40 18.7348 40 19V38L36 36L32 38L28 36L24 38L20 36L16 38Z" fill="#006FAB"/>
<path d="M21.5 25H34.5" stroke="#006FAB" stroke-width="2" stroke-linecap="round" stroke-linejoin="round"/>
<path d="M21.5 29H34.5" stroke="#006FAB" stroke-width="2" stroke-linecap="round" stroke-linejoin="round"/>
<path d="M16 38V19C16 18.7348 16.1054 18.4804 16.2929 18.2929C16.4804 18.1054 16.7348 18 17 18H39C39.2652 18 39.5196 18.1054 39.7071 18.2929C39.8946 18.4804 40 18.7348 40 19V38L36 36L32 38L28 36L24 38L20 36L16 38Z" stroke="#006FAB" stroke-width="2" stroke-linecap="round" stroke-linejoin="round"/>
</svg>
