<svg width="56" height="56" viewBox="0 0 56 56" fill="none" xmlns="http://www.w3.org/2000/svg">
<rect width="56" height="56" rx="2" fill="white"/>
<path opacity="0.2" d="M21.2374 25.9248L17.3124 30.6248C17.2136 30.7402 17.1438 30.8776 17.109 31.0255C17.0742 31.1734 17.0754 31.3275 17.1124 31.4748L18.6499 38.4373C18.687 38.6028 18.7656 38.7561 18.8783 38.8829C18.991 39.0097 19.1341 39.1057 19.2941 39.162C19.4541 39.2182 19.6257 39.2328 19.793 39.2045C19.9602 39.1761 20.1174 39.1057 20.2499 38.9998L23.9999 35.9998C21.7999 32.1748 21.0874 28.8123 21.2374 25.9248Z" fill="#2DA5F3"/>
<path opacity="0.2" d="M34.6875 25.8374L38.6125 30.5499C38.7114 30.6653 38.7812 30.8027 38.816 30.9506C38.8508 31.0985 38.8496 31.2526 38.8125 31.3999L37.275 38.3499C37.2396 38.5165 37.1622 38.6712 37.0503 38.7995C36.9383 38.9277 36.7954 39.0253 36.6351 39.0829C36.4749 39.1405 36.3026 39.1562 36.1346 39.1285C35.9666 39.1009 35.8084 39.0308 35.675 38.9249L31.925 35.9249C34.125 32.0874 34.8375 28.7249 34.6875 25.8374Z" fill="#2DA5F3"/>
<path d="M30 40H26" stroke="#2DA5F3" stroke-width="2" stroke-linecap="round" stroke-linejoin="round"/>
<path d="M27.3749 14.4752C24.9999 16.3752 17.0624 23.9752 23.9999 36.0002H31.9999C38.7999 23.9752 30.9749 16.3877 28.6249 14.4752C28.4496 14.3288 28.2284 14.2485 27.9999 14.2485C27.7715 14.2485 27.5503 14.3288 27.3749 14.4752Z" stroke="#2DA5F3" stroke-width="2" stroke-linecap="round" stroke-linejoin="round"/>
<path d="M21.2374 25.9248L17.3124 30.6248C17.2136 30.7402 17.1438 30.8776 17.109 31.0255C17.0742 31.1734 17.0754 31.3275 17.1124 31.4748L18.6499 38.4373C18.687 38.6028 18.7656 38.7561 18.8783 38.8829C18.991 39.0097 19.1341 39.1057 19.2941 39.162C19.4541 39.2182 19.6257 39.2328 19.793 39.2045C19.9602 39.1761 20.1174 39.1057 20.2499 38.9998L23.9999 35.9998" stroke="#2DA5F3" stroke-width="2" stroke-linecap="round" stroke-linejoin="round"/>
<path d="M34.6875 25.8252L38.6875 30.6252C38.7864 30.7406 38.8561 30.878 38.8909 31.0259C38.9258 31.1738 38.9246 31.3278 38.8875 31.4752L37.35 38.4377C37.3129 38.6032 37.2343 38.7565 37.1216 38.8833C37.009 39.0101 36.8659 39.1061 36.7059 39.1623C36.5459 39.2186 36.3742 39.2332 36.207 39.2049C36.0398 39.1765 35.8825 39.1061 35.75 39.0002L32 36.0002" stroke="#2DA5F3" stroke-width="2" stroke-linecap="round" stroke-linejoin="round"/>
<path d="M28 25.5C28.8284 25.5 29.5 24.8284 29.5 24C29.5 23.1716 28.8284 22.5 28 22.5C27.1716 22.5 26.5 23.1716 26.5 24C26.5 24.8284 27.1716 25.5 28 25.5Z" fill="#2DA5F3"/>
</svg>
