<svg width="225" height="90" viewBox="0 0 225 90" fill="none" xmlns="http://www.w3.org/2000/svg">
<g filter="url(#filter0_dd_165_16755)">
<rect x="18" y="18" width="189" height="54" rx="27" fill="url(#paint0_linear_165_16755)"/>
<rect x="20.5" y="20.5" width="184" height="49" rx="24.5" stroke="url(#paint1_linear_165_16755)" stroke-width="5"/>
<rect x="26" y="26" width="38" height="38" rx="19" fill="url(#paint2_linear_165_16755)"/>
<path d="M47.1017 39.0124L40 44.5H44L41.4328 49.1209C40.9018 50.0767 42.0704 51.0693 42.9277 50.3906L51 44H46.5L48.5847 40.2939C49.119 39.344 47.9641 38.346 47.1017 39.0124Z" fill="#FFDF58" stroke="#FDA005"/>
<path d="M93.216 37.8C94.2933 37.8 95.2 38.1627 95.936 38.888C96.672 39.6133 97.04 40.504 97.04 41.56C97.04 42.616 96.672 43.5067 95.936 44.232C95.2 44.9573 94.2933 45.32 93.216 45.32H91.248V49H89.04V37.8H93.216ZM93.216 43.256C93.6853 43.256 94.0747 43.096 94.384 42.776C94.6933 42.4453 94.848 42.04 94.848 41.56C94.848 41.0693 94.6933 40.664 94.384 40.344C94.0747 40.024 93.6853 39.864 93.216 39.864H91.248V43.256H93.216ZM104.01 41H106.074V49H104.01V48.056C103.392 48.8347 102.522 49.224 101.402 49.224C100.336 49.224 99.4183 48.8187 98.6502 48.008C97.8929 47.1867 97.5142 46.184 97.5142 45C97.5142 43.816 97.8929 42.8187 98.6502 42.008C99.4183 41.1867 100.336 40.776 101.402 40.776C102.522 40.776 103.392 41.1653 104.01 41.944V41ZM100.202 46.632C100.618 47.048 101.146 47.256 101.786 47.256C102.426 47.256 102.954 47.048 103.37 46.632C103.797 46.2053 104.01 45.6613 104.01 45C104.01 44.3387 103.797 43.8 103.37 43.384C102.954 42.9573 102.426 42.744 101.786 42.744C101.146 42.744 100.618 42.9573 100.202 43.384C99.7862 43.8 99.5782 44.3387 99.5782 45C99.5782 45.6613 99.7862 46.2053 100.202 46.632ZM113.242 41H115.45L112.538 49C112.122 50.152 111.567 50.984 110.874 51.496C110.191 52.0187 109.338 52.2533 108.314 52.2V50.28C108.869 50.2907 109.306 50.1733 109.626 49.928C109.957 49.6827 110.218 49.288 110.41 48.744L107.13 41H109.386L111.466 46.376L113.242 41ZM126 49.224C124.315 49.224 122.923 48.664 121.824 47.544C120.725 46.424 120.176 45.0427 120.176 43.4C120.176 41.7467 120.725 40.3653 121.824 39.256C122.923 38.136 124.315 37.576 126 37.576C127.013 37.576 127.947 37.816 128.8 38.296C129.664 38.7653 130.336 39.4053 130.816 40.216L128.912 41.32C128.635 40.8187 128.24 40.4293 127.728 40.152C127.216 39.864 126.64 39.72 126 39.72C124.912 39.72 124.032 40.0613 123.36 40.744C122.699 41.4267 122.368 42.312 122.368 43.4C122.368 44.4773 122.699 45.3573 123.36 46.04C124.032 46.7227 124.912 47.064 126 47.064C126.64 47.064 127.216 46.9253 127.728 46.648C128.251 46.36 128.645 45.9707 128.912 45.48L130.816 46.584C130.336 47.3947 129.669 48.04 128.816 48.52C127.963 48.9893 127.024 49.224 126 49.224ZM134.346 42.376C134.538 41.864 134.852 41.48 135.29 41.224C135.738 40.968 136.234 40.84 136.778 40.84V43.144C136.148 43.0693 135.583 43.1973 135.082 43.528C134.591 43.8587 134.346 44.408 134.346 45.176V49H132.282V41H134.346V42.376ZM139.512 45.848C139.789 46.8507 140.541 47.352 141.768 47.352C142.557 47.352 143.154 47.0853 143.56 46.552L145.224 47.512C144.434 48.6533 143.272 49.224 141.736 49.224C140.413 49.224 139.352 48.824 138.552 48.024C137.752 47.224 137.352 46.216 137.352 45C137.352 43.7947 137.746 42.792 138.536 41.992C139.325 41.1813 140.338 40.776 141.576 40.776C142.749 40.776 143.714 41.1813 144.472 41.992C145.24 42.8027 145.624 43.8053 145.624 45C145.624 45.2667 145.597 45.5493 145.544 45.848H139.512ZM139.48 44.248H143.56C143.442 43.704 143.197 43.2987 142.824 43.032C142.461 42.7653 142.045 42.632 141.576 42.632C141.021 42.632 140.562 42.776 140.2 43.064C139.837 43.3413 139.597 43.736 139.48 44.248ZM153.146 37.8H155.21V49H153.146V48.056C152.538 48.8347 151.674 49.224 150.554 49.224C149.477 49.224 148.554 48.8187 147.786 48.008C147.029 47.1867 146.65 46.184 146.65 45C146.65 43.816 147.029 42.8187 147.786 42.008C148.554 41.1867 149.477 40.776 150.554 40.776C151.674 40.776 152.538 41.1653 153.146 41.944V37.8ZM149.338 46.632C149.765 47.048 150.298 47.256 150.938 47.256C151.578 47.256 152.106 47.048 152.522 46.632C152.938 46.2053 153.146 45.6613 153.146 45C153.146 44.3387 152.938 43.8 152.522 43.384C152.106 42.9573 151.578 42.744 150.938 42.744C150.298 42.744 149.765 42.9573 149.338 43.384C148.922 43.8 148.714 44.3387 148.714 45C148.714 45.6613 148.922 46.2053 149.338 46.632ZM158.202 40.04C157.86 40.04 157.562 39.9173 157.306 39.672C157.06 39.416 156.938 39.1173 156.938 38.776C156.938 38.4347 157.06 38.136 157.306 37.88C157.562 37.624 157.86 37.496 158.202 37.496C158.554 37.496 158.852 37.624 159.098 37.88C159.354 38.136 159.482 38.4347 159.482 38.776C159.482 39.1173 159.354 39.416 159.098 39.672C158.852 39.9173 158.554 40.04 158.202 40.04ZM157.178 49V41H159.242V49H157.178ZM165.787 42.984H163.979V46.312C163.979 46.5893 164.048 46.792 164.187 46.92C164.326 47.048 164.528 47.1227 164.795 47.144C165.062 47.1547 165.392 47.1493 165.787 47.128V49C164.368 49.16 163.366 49.0267 162.779 48.6C162.203 48.1733 161.915 47.4107 161.915 46.312V42.984H160.523V41H161.915V39.384L163.979 38.76V41H165.787V42.984Z" fill="white"/>
</g>
<defs>
<filter id="filter0_dd_165_16755" x="0" y="0" width="225" height="90" filterUnits="userSpaceOnUse" color-interpolation-filters="sRGB">
<feFlood flood-opacity="0" result="BackgroundImageFix"/>
<feColorMatrix in="SourceAlpha" type="matrix" values="0 0 0 0 0 0 0 0 0 0 0 0 0 0 0 0 0 0 127 0" result="hardAlpha"/>
<feOffset dx="6" dy="6"/>
<feGaussianBlur stdDeviation="6"/>
<feColorMatrix type="matrix" values="0 0 0 0 0 0 0 0 0 0 0 0 0 0 0 0 0 0 0.16 0"/>
<feBlend mode="normal" in2="BackgroundImageFix" result="effect1_dropShadow_165_16755"/>
<feColorMatrix in="SourceAlpha" type="matrix" values="0 0 0 0 0 0 0 0 0 0 0 0 0 0 0 0 0 0 127 0" result="hardAlpha"/>
<feOffset dx="-6" dy="-6"/>
<feGaussianBlur stdDeviation="6"/>
<feColorMatrix type="matrix" values="0 0 0 0 1 0 0 0 0 1 0 0 0 0 1 0 0 0 0.04 0"/>
<feBlend mode="normal" in2="effect1_dropShadow_165_16755" result="effect2_dropShadow_165_16755"/>
<feBlend mode="normal" in="SourceGraphic" in2="effect2_dropShadow_165_16755" result="shape"/>
</filter>
<linearGradient id="paint0_linear_165_16755" x1="112.5" y1="18" x2="112.5" y2="72" gradientUnits="userSpaceOnUse">
<stop stop-color="#006FAB"/>
<stop offset="1" stop-color="#003964"/>
</linearGradient>
<linearGradient id="paint1_linear_165_16755" x1="37.5079" y1="25.8363" x2="156.493" y2="112.787" gradientUnits="userSpaceOnUse">
<stop stop-color="#2E3234"/>
<stop offset="1" stop-color="#212426"/>
</linearGradient>
<linearGradient id="paint2_linear_165_16755" x1="59.5" y1="58" x2="32" y2="31" gradientUnits="userSpaceOnUse">
<stop stop-color="#426BB6"/>
<stop offset="1" stop-color="#26458C"/>
</linearGradient>
</defs>
</svg>
