<svg width="16" height="16" viewBox="0 0 16 16" fill="none" xmlns="http://www.w3.org/2000/svg">
<g clip-path="url(#clip0_94_2219)">
<path d="M7.02406 0.0530204C4.3652 0.349837 1.71572 2.50098 1.60636 5.57382C1.53762 7.45001 2.07033 8.85755 3.85592 9.25278C4.63077 7.88586 3.60597 7.58436 3.44663 6.59549C2.79207 2.54316 8.12072 -0.220364 10.9092 2.60877C12.8386 4.56776 11.5685 10.5947 8.45659 9.96827C5.47592 9.36995 9.91568 4.57245 7.53646 3.63045C5.60246 2.86497 4.57453 5.97218 5.49154 7.51563C4.95415 10.1698 3.79656 12.6709 4.26522 15.9999C5.78524 14.897 6.29764 12.7849 6.71787 10.5822C7.48178 11.0462 7.88951 11.5289 8.86432 11.6039C12.4589 11.882 14.4664 8.01553 13.9758 4.44904C13.54 1.28715 10.3843 -0.321906 7.02406 0.0530204Z" fill="#5F6C72"/>
</g>
<defs>
<clipPath id="clip0_94_2219">
<rect width="16" height="16" fill="white"/>
</clipPath>
</defs>
</svg>
