<svg width="20" height="20" viewBox="0 0 20 20" fill="none" xmlns="http://www.w3.org/2000/svg">
<path opacity="0.2" d="M7.5 7.5V8.75C7.5 9.41304 7.23661 10.0489 6.76777 10.5178C6.29893 10.9866 5.66304 11.25 5 11.25C4.33696 11.25 3.70107 10.9866 3.23223 10.5178C2.76339 10.0489 2.5 9.41304 2.5 8.75V7.5" fill="white"/>
<g opacity="0.2">
<mask id="path-2-inside-1_1344_1422" fill="white">
<path d="M17.5 7.5V8.75C17.5 9.41304 17.2366 10.0489 16.7678 10.5178C16.2989 10.9866 15.663 11.25 15 11.25C14.337 11.25 13.7011 10.9866 13.2322 10.5178C12.7634 10.0489 12.5 9.41304 12.5 8.75V7.5"/>
</mask>
<path d="M17.5 7.5V8.75C17.5 9.41304 17.2366 10.0489 16.7678 10.5178C16.2989 10.9866 15.663 11.25 15 11.25C14.337 11.25 13.7011 10.9866 13.2322 10.5178C12.7634 10.0489 12.5 9.41304 12.5 8.75V7.5" fill="white"/>
<path d="M16 7.5V8.75H19V7.5H16ZM16 8.75C16 9.01522 15.8946 9.26957 15.7071 9.45711L17.8284 11.5784C18.5786 10.8283 19 9.81087 19 8.75H16ZM15.7071 9.45711C15.5196 9.64464 15.2652 9.75 15 9.75V12.75C16.0609 12.75 17.0783 12.3286 17.8284 11.5784L15.7071 9.45711ZM15 9.75C14.7348 9.75 14.4804 9.64464 14.2929 9.45711L12.1716 11.5784C12.9217 12.3286 13.9391 12.75 15 12.75V9.75ZM14.2929 9.45711C14.1054 9.26957 14 9.01522 14 8.75H11C11 9.81087 11.4214 10.8283 12.1716 11.5784L14.2929 9.45711ZM14 8.75V7.5H11V8.75H14Z" fill="white" mask="url(#path-2-inside-1_1344_1422)"/>
</g>
<path d="M3.75 10.9062V16.25C3.75 16.4158 3.81585 16.5747 3.93306 16.6919C4.05027 16.8092 4.20924 16.875 4.375 16.875H15.625C15.7908 16.875 15.9497 16.8092 16.0669 16.6919C16.1842 16.5747 16.25 16.4158 16.25 16.25V10.9062" stroke="white" stroke-width="1.5" stroke-linecap="round" stroke-linejoin="round"/>
<path d="M4.21875 3.125H15.7812C15.9168 3.12612 16.0485 3.17075 16.1568 3.25233C16.2651 3.33391 16.3443 3.44812 16.3828 3.57812L17.5 7.5H2.5L3.61719 3.57812C3.65568 3.44812 3.73492 3.33391 3.84322 3.25233C3.95152 3.17075 4.08317 3.12612 4.21875 3.125V3.125Z" stroke="white" stroke-width="1.5" stroke-linecap="round" stroke-linejoin="round"/>
<path d="M7.5 7.5V8.75C7.5 9.41304 7.23661 10.0489 6.76777 10.5178C6.29893 10.9866 5.66304 11.25 5 11.25C4.33696 11.25 3.70107 10.9866 3.23223 10.5178C2.76339 10.0489 2.5 9.41304 2.5 8.75V7.5" stroke="white" stroke-width="1.5" stroke-linecap="round" stroke-linejoin="round"/>
<path d="M12.5 7.5V8.75C12.5 9.41304 12.2366 10.0489 11.7678 10.5178C11.2989 10.9866 10.663 11.25 10 11.25C9.33696 11.25 8.70107 10.9866 8.23223 10.5178C7.76339 10.0489 7.5 9.41304 7.5 8.75V7.5" stroke="white" stroke-width="1.5" stroke-linecap="round" stroke-linejoin="round"/>
<path d="M17.5 7.5V8.75C17.5 9.41304 17.2366 10.0489 16.7678 10.5178C16.2989 10.9866 15.663 11.25 15 11.25C14.337 11.25 13.7011 10.9866 13.2322 10.5178C12.7634 10.0489 12.5 9.41304 12.5 8.75V7.5" stroke="white" stroke-width="1.5" stroke-linecap="round" stroke-linejoin="round"/>
</svg>
