
<svg width="16" height="14" viewBox="0 0 16 14" fill="none" xmlns="http://www.w3.org/2000/svg">
<path d="M5.03184 13.5024C11.0699 13.5024 14.3718 8.49713 14.3718 4.15673C14.3718 4.01458 14.3689 3.87308 14.3625 3.73217C15.005 3.26699 15.5595 2.69103 16 2.03128C15.4118 2.29294 14.7789 2.46904 14.1149 2.54844C14.7926 2.14181 15.3129 1.49851 15.5584 0.73169C14.914 1.11419 14.2091 1.38382 13.4739 1.52898C12.8749 0.890525 12.0221 0.491211 11.0778 0.491211C9.26494 0.491211 7.79489 1.96219 7.79489 3.7754C7.79489 4.03319 7.82374 4.28385 7.88006 4.52436C5.15177 4.38699 2.73252 3.07995 1.11343 1.09252C0.821818 1.59379 0.668434 2.16349 0.668943 2.74345C0.668943 3.88304 1.24846 4.88903 2.12976 5.47759C1.60846 5.46166 1.0986 5.32077 0.643057 5.06676C0.642569 5.08055 0.642569 5.09399 0.642569 5.10872C0.642569 6.69944 1.77408 8.02759 3.27613 8.32854C2.99402 8.40542 2.70292 8.44428 2.41054 8.44411C2.19938 8.44411 1.99359 8.42333 1.79359 8.38491C2.21151 9.69 3.42335 10.6397 4.86013 10.6663C3.73659 11.5474 2.32127 12.0723 0.783024 12.0723C0.521349 12.0725 0.259888 12.0573 0 12.0267C1.45281 12.9585 3.17789 13.5022 5.032 13.5022" fill="#5F6C72"/>
</svg>
